# xmcd
#
# Track frame offsets: 
#        150
#        15920
#        28728
#        43421
#        55500
#        72206
#
# Disc length: 1154 seconds
#
# Revision: 0
# Processed by: cddbd v1.5.2PL0 Copyright (c) Steve Scherf et al.
# Submitted via: ExactAudioCopyFreeDBPlugin 1.0
#
DISCID=45048006
DTITLE=Sandra Piller - One Step Closer
DYEAR=2015
DGENRE=Country
TTITLE0=One Step Closer
TTITLE1=Those Days Are Gone
TTITLE2=I'm Capable
TTITLE3=Just Because We Can
TTITLE4=Bluebird
TTITLE5=It Was What It Was
EXTD=
EXTT0=
EXTT1=
EXTT2=
EXTT3=
EXTT4=
EXTT5=
PLAYORDER=
